<svg width="28" height="28" viewBox="0 0 28 28" fill="none" xmlns="http://www.w3.org/2000/svg">
<path opacity="0.8" d="M13.9994 27.9998C10.3071 28.02 6.75414 26.5496 4.10227 23.9038C2.80537 22.6231 1.77339 21.0856 1.0684 19.3836C0.363421 17.6816 0 15.8503 0 14C0 12.1496 0.363421 10.3184 1.0684 8.61639C1.77339 6.91441 2.80537 5.37686 4.10227 4.09621C6.75414 1.45038 10.3071 -0.0200556 13.9994 0.00020666C17.6927 -0.0189358 21.2463 1.4533 23.8977 4.1011C25.1946 5.38175 26.2266 6.9193 26.9316 8.62128C27.6366 10.3233 28 12.1545 28 14.0049C28 15.8552 27.6366 17.6865 26.9316 19.3885C26.2266 21.0904 25.1946 22.628 23.8977 23.9087C21.2447 26.5529 17.6914 28.0215 13.9994 27.9998ZM11.036 11.5901V14.1761H12.4381V21.5122H15.4063V14.1761H17.3962L17.6574 11.5901H15.4016V10.0617C15.3931 9.95621 15.4079 9.85011 15.4446 9.75126C15.4814 9.65242 15.5394 9.56337 15.6141 9.49071C15.7306 9.39857 15.8745 9.35102 16.0213 9.35622H17.6194V6.83626L15.4182 6.82036C14.7591 6.79433 14.1088 6.98208 13.5589 7.35712C13.1469 7.66224 12.8341 8.08842 12.6613 8.57981C12.5085 9.00327 12.4332 9.45225 12.4393 9.90398V11.5901H11.036Z" fill="white"/>
</svg>
