<svg width="29" height="28" viewBox="0 0 29 28" fill="none" xmlns="http://www.w3.org/2000/svg">
<path opacity="0.8" d="M14.2851 27.9998C10.5928 28.02 7.03979 26.5496 4.38791 23.9038C3.09101 22.6231 2.05903 21.0856 1.35405 19.3836C0.649066 17.6816 0.285645 15.8503 0.285645 14C0.285645 12.1496 0.649066 10.3184 1.35405 8.61639C2.05903 6.91441 3.09101 5.37686 4.38791 4.09621C7.03979 1.45038 10.5928 -0.0200556 14.2851 0.00020666C17.9784 -0.0189358 21.5319 1.4533 24.1834 4.1011C25.4803 5.38175 26.5123 6.9193 27.2172 8.62128C27.9222 10.3233 28.2856 12.1545 28.2856 14.0049C28.2856 15.8552 27.9222 17.6865 27.2172 19.3885C26.5123 21.0904 25.4803 22.628 24.1834 23.9086C21.5304 26.5529 17.977 28.0215 14.2851 27.9998ZM6.44903 19.3541C7.16987 19.8288 7.95315 20.1945 8.7749 20.4399C9.62305 20.6971 10.5027 20.8273 11.3869 20.8263C12.7369 20.8375 14.0734 20.5485 15.3049 19.9789C16.3971 19.4535 17.3717 18.7008 18.1674 17.7683C18.9222 16.8765 19.5161 15.8529 19.9211 14.7458C20.3073 13.6848 20.5083 12.5618 20.5147 11.4287V11.0142C21.1447 10.537 21.6895 9.95081 22.1246 9.28163C21.5335 9.55348 20.9066 9.73355 20.2642 9.81595C20.5958 9.60953 20.8896 9.34466 21.1321 9.03343C21.3769 8.71878 21.5621 8.35961 21.6782 7.97458C21.0494 8.36529 20.3591 8.63965 19.6385 8.78522C19.3395 8.45293 18.9768 8.18805 18.5735 8.00728C18.1701 7.82651 17.7347 7.73378 17.2948 7.73493C16.7311 7.73297 16.1774 7.88892 15.6932 8.1861C15.2082 8.47775 14.8045 8.89344 14.5213 9.3929C14.2357 9.89561 14.0872 10.4684 14.0915 11.0509C14.0913 11.3046 14.1156 11.5577 14.1639 11.8065C12.8725 11.7377 11.6101 11.3863 10.4608 10.7758C9.33581 10.1797 8.34233 9.35093 7.54251 8.34138C7.26025 8.84548 7.11238 9.41745 7.1139 9.99935C7.11076 10.5493 7.24311 11.0912 7.49858 11.5742C7.74854 12.0518 8.10751 12.4597 8.54457 12.7626C8.02839 12.7528 7.52323 12.6071 7.0771 12.3396V12.3958C7.08783 12.9053 7.20699 13.4061 7.42616 13.863C7.6435 14.3177 7.95907 14.715 8.34867 15.0246C8.73196 15.3301 9.17913 15.5394 9.65467 15.6359C9.38027 15.71 9.09775 15.7474 8.81408 15.7472C8.61498 15.7478 8.41625 15.7294 8.22044 15.6922C8.41735 16.3454 8.8122 16.9166 9.34717 17.322C9.88375 17.7412 10.5344 17.9768 11.2076 17.9957C10.644 18.4383 10.0162 18.7866 9.34717 19.0277C8.66271 19.2726 7.94298 19.3966 7.21838 19.3945C6.95124 19.3969 6.69954 19.3847 6.45259 19.3602L6.44903 19.3541Z" fill="white"/>
</svg>
